<svg width="127" height="113" viewBox="0 0 127 113" fill="none" xmlns="http://www.w3.org/2000/svg">
<path d="M56.9417 50.9504C60.6107 51.1414 62.8117 48.9094 63.6917 44.7244C64.5997 40.4094 61.9547 35.1444 57.0297 35.4024C52.6837 35.6294 50.9867 39.6254 51.4837 43.4874C51.9477 47.0864 53.6077 50.7774 56.9417 50.9504Z" fill="white"/>
<path d="M42.8257 52.7204C41.7967 49.4324 38.5377 44.6314 34.5137 46.9734C30.0407 49.5764 32.5517 54.9844 35.4587 57.6384C37.3357 59.3524 39.8807 60.7524 41.5877 60.1334C44.2337 59.1734 43.7277 55.6004 42.8257 52.7204Z" fill="white"/>
<path d="M80.0318 53.4794C83.6798 51.8164 85.4078 49.0494 84.0798 45.4134C83.3238 43.3444 81.1908 41.6364 78.9938 41.4454C76.5008 41.2294 74.9588 42.8424 74.0328 44.9764C72.8018 47.8134 71.5118 51.5694 73.5858 53.7444C75.2308 55.4694 77.6828 54.5504 80.0318 53.4794Z" fill="white"/>
<path d="M56.6197 58.8634C49.8977 62.3784 39.9638 68.5944 42.8148 76.4724C46.2878 86.0724 58.5297 75.1954 65.1667 77.1534C68.0027 77.9894 70.2897 80.5224 73.2047 81.0774C84.6297 83.2544 79.6898 69.7244 77.3708 65.9534C72.7058 58.3674 64.2547 54.8714 56.6197 58.8634Z" fill="white"/>
<path d="M102.778 79.0324C114.094 66.6434 125.229 50.8114 126.769 33.5774C128.097 18.7164 120.98 1.40543 104.267 0.0954281C85.6958 -1.36057 73.2497 14.1154 64.0877 28.0104C64.0187 28.2724 63.7967 28.4614 63.5437 28.4984C63.2197 28.5624 62.8858 28.3414 62.7978 28.0104C54.6198 15.5944 44.3567 2.14143 28.4507 0.239425C14.9757 -1.37257 4.68973 6.81943 1.27673 19.5914C-2.04427 32.0204 1.50174 44.6964 7.44174 55.7444C13.9857 67.9174 23.3577 78.4124 33.4317 87.7734C43.0797 96.7394 54.0978 103.898 63.9868 112.509C70.2178 107.102 77.0908 102.51 83.4528 97.2474C90.2748 91.6024 96.8017 85.5734 102.778 79.0324ZM71.4067 49.4674C71.7947 46.1064 72.9867 42.5004 75.4367 40.7464C78.8377 38.3114 83.5178 40.5194 85.3618 43.8524C87.4398 47.6074 85.8697 52.2684 82.1927 54.3014C80.6887 55.1334 77.3588 56.3314 74.8798 56.0764C70.7678 55.6544 71.1227 51.9224 71.4067 49.4674ZM57.8937 33.5204C63.2237 33.7464 66.4207 38.9224 65.8737 43.9124C65.5077 47.2474 64.2018 50.1824 60.4228 51.8854C59.5958 52.2574 56.6387 53.3394 53.9667 51.2384C47.7367 46.3394 48.1367 33.1064 57.8937 33.5204ZM34.7897 45.3074C41.9717 42.2954 48.3397 55.5044 43.8438 60.6944C43.4387 61.1614 42.2007 62.6204 38.6427 61.3994C32.1497 59.1704 26.4717 48.7964 34.7897 45.3074ZM82.3507 77.8544C81.0217 81.9284 76.8747 84.1874 72.7257 83.1274C70.1727 82.4754 68.2248 80.5814 65.8358 79.6004C60.2818 77.3194 56.6907 80.7764 51.6567 82.0494C47.6797 83.0554 43.6148 82.3304 41.5818 78.4434C39.5268 74.5144 40.4718 70.5594 42.8828 67.1024C45.7268 63.0254 50.2967 60.1924 54.9447 57.6524C58.0247 55.9684 60.7198 54.5894 63.8488 54.7674C69.9278 55.1134 76.1608 59.4384 79.3408 64.6964C81.5588 68.3634 83.7607 73.5304 82.3507 77.8544ZM96.9067 64.5364C96.4987 68.5204 93.0298 70.3974 89.2668 69.8354C87.4808 69.5694 84.1957 68.3384 82.7857 66.4354C82.1847 65.6244 81.4577 63.8004 83.9977 61.0554C85.9707 58.9234 89.1648 57.5044 91.8148 57.6614C95.2778 57.8664 97.2317 61.3494 96.9067 64.5364Z" fill="#FD6AA6"/>
<path d="M102.778 79.0324C114.094 66.6434 125.229 50.8114 126.769 33.5774C128.097 18.7164 120.98 1.40543 104.267 0.0954281C85.6958 -1.36057 73.2497 14.1154 64.0877 28.0104C64.0187 28.2724 63.7967 28.4614 63.5437 28.4984C63.2197 28.5624 62.8858 28.3414 62.7978 28.0104C54.6198 15.5944 44.3567 2.14143 28.4507 0.239425C14.9757 -1.37257 4.68973 6.81943 1.27673 19.5914C-2.04427 32.0204 1.50174 44.6964 7.44174 55.7444C13.9857 67.9174 23.3577 78.4124 33.4317 87.7734C43.0797 96.7394 54.0978 103.898 63.9868 112.509C70.2178 107.102 77.0908 102.51 83.4528 97.2474C90.2748 91.6024 96.8017 85.5734 102.778 79.0324ZM71.4067 49.4674C71.7947 46.1064 72.9867 42.5004 75.4367 40.7464C78.8377 38.3114 83.5178 40.5194 85.3618 43.8524C87.4398 47.6074 85.8697 52.2684 82.1927 54.3014C80.6887 55.1334 77.3588 56.3314 74.8798 56.0764C70.7678 55.6544 71.1227 51.9224 71.4067 49.4674ZM57.8937 33.5204C63.2237 33.7464 66.4207 38.9224 65.8737 43.9124C65.5077 47.2474 64.2018 50.1824 60.4228 51.8854C59.5958 52.2574 56.6387 53.3394 53.9667 51.2384C47.7367 46.3394 48.1367 33.1064 57.8937 33.5204ZM34.7897 45.3074C41.9717 42.2954 48.3397 55.5044 43.8438 60.6944C43.4387 61.1614 42.2007 62.6204 38.6427 61.3994C32.1497 59.1704 26.4717 48.7964 34.7897 45.3074ZM82.3507 77.8544C81.0217 81.9284 76.8747 84.1874 72.7257 83.1274C70.1727 82.4754 68.2248 80.5814 65.8358 79.6004C60.2818 77.3194 56.6907 80.7764 51.6567 82.0494C47.6797 83.0554 43.6148 82.3304 41.5818 78.4434C39.5268 74.5144 40.4718 70.5594 42.8828 67.1024C45.7268 63.0254 50.2967 60.1924 54.9447 57.6524C58.0247 55.9684 60.7198 54.5894 63.8488 54.7674C69.9278 55.1134 76.1608 59.4384 79.3408 64.6964C81.5588 68.3634 83.7607 73.5304 82.3507 77.8544ZM96.9067 64.5364C96.4987 68.5204 93.0298 70.3974 89.2668 69.8354C87.4808 69.5694 84.1957 68.3384 82.7857 66.4354C82.1847 65.6244 81.4577 63.8004 83.9977 61.0554C85.9707 58.9234 89.1648 57.5044 91.8148 57.6614C95.2778 57.8664 97.2317 61.3494 96.9067 64.5364Z" fill="#FD6AA6"/>
<path d="M89.7647 59.9894C87.2317 60.6294 81.9918 63.2054 84.6068 65.5094C85.5808 66.3674 86.6738 67.1044 87.8998 67.5114C90.4398 68.3544 93.9218 68.2714 94.7288 65.1234C95.5998 61.7274 93.0587 59.1564 89.7647 59.9894Z" fill="white"/>
</svg>
